<svg version="1.1" id="Layer_1" xmlns="http://www.w3.org/2000/svg" xmlns:xlink="http://www.w3.org/1999/xlink" x="0px" y="0px"
	 width="100%" viewBox="0 0 366 357" enable-background="new 0 0 366 357" xml:space="preserve">
<path fill="#FEFEFE" opacity="1.000000" stroke="none" 
	d="
M175.000000,358.000000 
	C116.686653,358.000000 58.873306,358.000000 1.029980,358.000000 
	C1.029980,239.061111 1.029980,120.122223 1.029980,1.091667 
	C122.896667,1.091667 244.793427,1.091667 366.845093,1.091667 
	C366.845093,119.999847 366.845093,238.999893 366.845093,358.000000 
	C303.122253,358.000000 239.311127,358.000000 175.000000,358.000000 
M339.323975,261.373779 
	C339.977234,261.060150 340.630524,260.746552 341.988037,260.260101 
	C349.464111,257.251434 352.097870,253.633499 352.279785,246.652710 
	C352.465881,239.510529 348.237030,235.725922 342.343475,233.198868 
	C339.903290,232.152527 337.208496,231.660965 334.851166,230.476074 
	C333.597534,229.845963 332.817444,228.273773 331.823578,227.126831 
	C333.118500,226.378540 334.466339,224.923370 335.698364,225.015564 
	C339.277649,225.283310 342.810547,226.171310 346.810852,226.897552 
	C348.219116,224.086655 349.810059,220.911102 351.584137,217.369980 
	C342.196655,213.361298 333.289734,212.301041 324.461670,216.397369 
	C314.642944,220.953354 313.848145,232.915817 322.856079,238.869827 
	C325.734467,240.772400 329.241852,241.704559 332.213409,243.492905 
	C333.688263,244.380463 334.601349,246.201538 335.768585,247.600296 
	C333.952698,248.423264 331.923004,250.217300 330.363922,249.873978 
	C326.733582,249.074554 323.329865,247.245880 319.359894,245.642624 
	C317.700195,248.690521 315.898895,251.998474 313.367767,255.488159 
	C307.297668,249.147171 301.227570,242.806198 293.994812,235.250641 
	C300.827942,228.947037 307.840393,222.477997 315.751923,215.179581 
	C309.525970,215.179581 304.571442,214.877350 299.681854,215.309814 
	C297.313049,215.519318 294.647888,216.620102 292.847443,218.167435 
	C288.549835,221.860779 284.686096,226.058990 279.710449,230.979691 
	C279.710449,214.697525 279.710449,199.825470 279.710449,184.968933 
	C274.304138,184.968933 269.384857,184.968933 264.485626,184.968933 
	C264.485626,210.195175 264.485626,235.088577 264.485626,260.128418 
	C269.720551,260.128418 274.659882,260.128418 279.981750,260.128418 
	C279.981750,254.590836 279.981750,249.285934 280.550354,243.726547 
	C280.757812,243.717621 280.965271,243.708710 281.670319,244.154999 
	C282.962006,245.451126 284.485504,246.587250 285.508362,248.068954 
	C292.994141,258.913055 303.299591,262.578003 316.503845,260.706238 
	C317.442993,260.224243 318.382172,259.742249 319.983032,259.544342 
	C320.891632,259.850067 321.800232,260.155792 322.864746,260.924225 
	C323.578217,260.981750 324.291656,261.039246 325.799713,261.238525 
	C330.199615,261.171234 334.599518,261.103943 339.323975,261.373779 
M171.282028,129.776047 
	C171.282028,120.178429 171.282028,110.580811 171.282028,100.897400 
	C165.861176,100.897400 161.112854,100.897400 156.190399,100.897400 
	C156.190399,126.144524 156.190399,151.173386 156.190399,176.107849 
	C161.296387,176.107849 166.070480,176.107849 171.035980,176.107849 
	C171.035980,162.283081 171.035980,148.684708 171.658539,134.609238 
	C172.537308,135.757309 173.562668,136.821899 174.271378,138.066788 
	C179.449600,147.162521 184.434418,156.371475 189.772583,165.371323 
	C191.533524,168.340164 191.382751,170.640686 189.792053,173.550491 
	C185.283585,181.797638 181.050888,190.195496 176.331985,199.259293 
	C181.586914,199.259293 186.040100,199.051682 190.462357,199.331955 
	C193.431976,199.520157 194.830368,198.345490 196.139221,195.806198 
	C206.564957,175.579163 217.148193,155.433350 227.659973,135.250580 
	C228.239685,134.137497 228.613663,132.917267 229.308929,131.185043 
	C224.477676,131.185043 220.190063,131.403046 215.937073,131.113113 
	C212.778061,130.897751 211.198013,132.045883 209.976120,134.916443 
	C207.298950,141.205856 204.249680,147.336884 201.015442,154.253067 
	C197.011124,146.921310 193.672012,140.430832 189.908249,134.196732 
	C189.031952,132.745270 186.788391,131.518890 185.040359,131.310730 
	C180.451889,130.764359 175.789795,130.836502 171.282028,129.776047 
M38.229206,103.781555 
	C32.517895,103.764610 26.805132,103.675156 21.096437,103.789238 
	C19.891773,103.813316 18.702015,104.583176 17.230564,105.908401 
	C17.230564,129.300476 17.230564,152.692551 17.230564,176.160446 
	C26.129074,176.160446 34.324207,176.712936 42.416370,176.035477 
	C55.714260,174.922195 65.324181,167.784012 71.500893,156.000397 
	C72.143173,154.775070 72.708931,153.509628 73.073189,152.754272 
	C78.236076,174.514374 89.355034,183.984772 111.733315,172.798264 
	C111.886795,173.626938 112.135460,174.969543 112.333000,176.036118 
	C117.481796,176.036118 122.236053,176.036118 126.930969,176.036118 
	C126.930969,160.987686 126.930969,146.260269 126.930969,130.824661 
	C121.476517,132.817123 115.225037,128.024948 110.694893,134.416885 
	C104.912659,129.982086 98.052490,128.854675 90.723717,130.764389 
	C83.204651,132.723694 78.811241,138.368515 75.328308,144.986786 
	C74.595024,119.662155 59.812115,103.050743 38.229206,103.781555 
M115.557808,191.857178 
	C115.557808,214.579025 115.557808,237.300888 115.557808,260.181122 
	C121.338989,260.181122 126.445999,260.181122 132.047668,260.181122 
	C132.047668,255.783234 132.047668,251.499420 132.047668,247.215607 
	C132.047668,242.745102 132.047668,238.274582 132.047668,233.252487 
	C136.719254,233.252487 141.029572,233.523422 145.295227,233.201904 
	C158.328537,232.219574 166.811554,223.108536 166.886292,210.310745 
	C166.961151,197.496689 159.052475,188.891647 145.609451,188.040573 
	C136.656815,187.473801 127.644424,187.711945 118.664932,187.893753 
	C117.609680,187.915131 116.593506,189.867142 115.557808,191.857178 
M198.690369,259.299805 
	C200.297928,258.226929 201.905487,257.154083 203.717911,255.944489 
	C203.898544,257.585693 204.038223,258.854767 204.164261,259.999817 
	C209.269379,259.999817 214.145538,259.999817 218.930359,259.999817 
	C218.930359,244.938919 218.930359,230.235336 218.930359,214.840073 
	C213.474991,216.759186 207.265732,212.135147 202.752213,218.253220 
	C191.244705,211.709686 180.370514,212.611481 172.785873,220.994003 
	C165.355606,229.205917 164.435135,242.835678 170.690125,252.026871 
	C176.842789,261.067688 187.107834,263.939911 198.690369,259.299805 
M246.649612,261.698364 
	C252.149124,261.609375 257.460815,260.869171 262.390900,257.580811 
	C260.537903,253.819611 258.890656,250.476044 257.230225,247.105728 
	C251.019196,249.529968 245.534912,250.057281 241.277054,244.699310 
	C238.167725,240.786621 237.901550,236.292236 240.470505,232.091476 
	C244.591827,225.352280 250.821930,226.056580 257.403473,228.367828 
	C259.097595,224.779495 260.683533,221.420273 262.235046,218.133972 
	C246.006119,207.938324 224.997803,217.257553 222.439087,235.227936 
	C220.588150,248.227478 230.764404,259.755249 246.649612,261.698364 
M133.570190,160.494720 
	C133.570190,165.621277 133.570190,170.747833 133.570190,176.104904 
	C138.873337,176.104904 143.766571,176.104904 148.685638,176.104904 
	C148.685638,161.082367 148.685638,146.256546 148.685638,131.450592 
	C143.560043,131.450592 138.813202,131.450592 133.570251,131.450592 
	C133.570251,140.959595 133.570251,150.228180 133.570190,160.494720 
M135.880463,105.314117 
	C131.134949,110.595894 131.194824,116.226265 136.035721,119.911095 
	C140.230865,123.104370 146.157791,122.133980 149.137115,117.675171 
	C151.659027,113.900917 151.368744,110.144600 148.553879,106.664146 
	C145.606964,103.020393 141.774963,102.509911 135.880463,105.314117 
z"/>
<path fill="#050505" opacity="1.000000" stroke="none" 
	d="
M38.959892,104.116028 
	C59.812115,103.050743 74.595024,119.662155 75.328308,144.986786 
	C78.811241,138.368515 83.204651,132.723694 90.723717,130.764389 
	C98.052490,128.854675 104.912659,129.982086 110.694893,134.416885 
	C115.225037,128.024948 121.476517,132.817123 126.930969,130.824661 
	C126.930969,146.260269 126.930969,160.987686 126.930969,176.036118 
	C122.236053,176.036118 117.481796,176.036118 112.333000,176.036118 
	C112.135460,174.969543 111.886795,173.626938 111.733315,172.798264 
	C89.355034,183.984772 78.236076,174.514374 73.073189,152.754272 
	C72.708931,153.509628 72.143173,154.775070 71.500893,156.000397 
	C65.324181,167.784012 55.714260,174.922195 42.416370,176.035477 
	C34.324207,176.712936 26.129074,176.160446 17.230564,176.160446 
	C17.230564,152.692551 17.230564,129.300476 17.804111,105.457092 
	C25.238405,104.709198 32.099148,104.412613 38.959892,104.116028 
M74.326462,148.060791 
	C73.909859,148.696533 73.493263,149.332260 73.076660,149.968002 
	C73.405479,150.111069 73.734306,150.254120 74.063126,150.397171 
	C74.393555,149.609879 74.723984,148.822586 75.444359,147.762100 
	C75.427116,147.402710 75.409866,147.043320 75.392624,146.683929 
	C75.241844,147.102554 75.091057,147.521179 74.326462,148.060791 
M45.121132,159.837433 
	C55.663258,153.936386 59.862728,142.319199 55.448437,131.268539 
	C51.841721,122.239548 42.849747,117.163559 34.255489,119.178429 
	C34.255489,133.279083 34.255489,147.339981 34.255489,162.061432 
	C37.960030,161.358292 41.185490,160.746078 45.121132,159.837433 
M95.661865,144.972061 
	C94.827789,145.768036 93.859535,146.464539 93.182838,147.377213 
	C90.240303,151.345825 90.375351,157.086761 93.403946,160.767181 
	C96.128746,164.078415 101.394119,165.334763 105.663223,163.692322 
	C110.015648,162.017792 112.531013,157.568665 112.005951,152.473419 
	C111.236893,145.010345 104.362679,141.542084 95.661865,144.972061 
z"/>
<path fill="#030303" opacity="1.000000" stroke="none" 
	d="
M115.558517,191.390656 
	C116.593506,189.867142 117.609680,187.915131 118.664932,187.893753 
	C127.644424,187.711945 136.656815,187.473801 145.609451,188.040573 
	C159.052475,188.891647 166.961151,197.496689 166.886292,210.310745 
	C166.811554,223.108536 158.328537,232.219574 145.295227,233.201904 
	C141.029572,233.523422 136.719254,233.252487 132.047668,233.252487 
	C132.047668,238.274582 132.047668,242.745102 132.047668,247.215607 
	C132.047668,251.499420 132.047668,255.783234 132.047668,260.181122 
	C126.445999,260.181122 121.338989,260.181122 115.557808,260.181122 
	C115.557808,237.300888 115.557808,214.579025 115.558517,191.390656 
M132.121124,219.251587 
	C135.747955,219.262985 139.465530,219.782242 142.978180,219.154617 
	C147.177414,218.404327 149.282578,215.278244 149.342728,210.874496 
	C149.404907,206.322159 147.473373,203.053528 143.032547,201.988770 
	C139.613800,201.169052 136.016418,201.094360 132.040344,200.635513 
	C132.040344,207.099670 132.040344,212.695663 132.121124,219.251587 
z"/>
<path fill="#080808" opacity="1.000000" stroke="none" 
	d="
M279.981750,243.981018 
	C279.981750,249.285934 279.981750,254.590836 279.981750,260.128418 
	C274.659882,260.128418 269.720551,260.128418 264.485626,260.128418 
	C264.485626,235.088577 264.485626,210.195175 264.485626,184.968933 
	C269.384857,184.968933 274.304138,184.968933 279.710449,184.968933 
	C279.710449,199.825470 279.710449,214.697525 279.710449,230.979691 
	C284.686096,226.058990 288.549835,221.860779 292.847443,218.167435 
	C294.647888,216.620102 297.313049,215.519318 299.681854,215.309814 
	C304.571442,214.877350 309.525970,215.179581 315.751923,215.179581 
	C307.840393,222.477997 300.827942,228.947037 293.994812,235.250641 
	C301.227570,242.806198 307.297668,249.147171 313.802307,255.564880 
	C314.478577,255.911514 314.720367,256.181458 315.000610,256.865784 
	C315.364288,258.292816 315.689545,259.305420 316.014771,260.318054 
	C303.299591,262.578003 292.994141,258.913055 285.508362,248.068954 
	C284.485504,246.587250 282.962006,245.451126 281.315735,243.622162 
	C280.634674,243.386566 280.308228,243.683792 279.981750,243.981018 
z"/>
<path fill="#050505" opacity="1.000000" stroke="none" 
	d="
M198.352264,259.486053 
	C187.107834,263.939911 176.842789,261.067688 170.690125,252.026871 
	C164.435135,242.835678 165.355606,229.205917 172.785873,220.994003 
	C180.370514,212.611481 191.244705,211.709686 202.752213,218.253220 
	C207.265732,212.135147 213.474991,216.759186 218.930359,214.840073 
	C218.930359,230.235336 218.930359,244.938919 218.930359,259.999817 
	C214.145538,259.999817 209.269379,259.999817 204.164261,259.999817 
	C204.038223,258.854767 203.898544,257.585693 203.717911,255.944489 
	C201.905487,257.154083 200.297928,258.226929 198.352264,259.486053 
M184.143234,232.987030 
	C183.835403,233.929504 183.382523,234.851273 183.244598,235.817978 
	C182.612579,240.248032 183.678421,244.176834 187.595001,246.659012 
	C191.561691,249.172974 195.838638,249.151428 199.761093,246.510696 
	C203.620544,243.912384 204.673325,239.931412 203.864059,235.560699 
	C203.110916,231.493149 200.570312,228.672592 196.539505,227.626724 
	C191.507324,226.321045 187.422409,227.923080 184.143234,232.987030 
z"/>
<path fill="#070707" opacity="1.000000" stroke="none" 
	d="
M171.157028,130.662201 
	C175.789795,130.836502 180.451889,130.764359 185.040359,131.310730 
	C186.788391,131.518890 189.031952,132.745270 189.908249,134.196732 
	C193.672012,140.430832 197.011124,146.921310 201.015442,154.253067 
	C204.249680,147.336884 207.298950,141.205856 209.976120,134.916443 
	C211.198013,132.045883 212.778061,130.897751 215.937073,131.113113 
	C220.190063,131.403046 224.477676,131.185043 229.308929,131.185043 
	C228.613663,132.917267 228.239685,134.137497 227.659973,135.250580 
	C217.148193,155.433350 206.564957,175.579163 196.139221,195.806198 
	C194.830368,198.345490 193.431976,199.520157 190.462357,199.331955 
	C186.040100,199.051682 181.586914,199.259293 176.331985,199.259293 
	C181.050888,190.195496 185.283585,181.797638 189.792053,173.550491 
	C191.382751,170.640686 191.533524,168.340164 189.772583,165.371323 
	C184.434418,156.371475 179.449600,147.162521 174.271378,138.066788 
	C173.562668,136.821899 172.537308,135.757309 171.315826,134.405365 
	C171.034424,133.021729 171.095734,131.841965 171.157028,130.662201 
z"/>
<path fill="#090909" opacity="1.000000" stroke="none" 
	d="
M314.962128,256.451385 
	C314.720367,256.181458 314.478577,255.911514 314.167236,255.473999 
	C315.898895,251.998474 317.700195,248.690521 319.359894,245.642624 
	C323.329865,247.245880 326.733582,249.074554 330.363922,249.873978 
	C331.923004,250.217300 333.952698,248.423264 335.768585,247.600311 
	C334.601349,246.201538 333.688263,244.380463 332.213409,243.492905 
	C329.241852,241.704559 325.734467,240.772400 322.856079,238.869827 
	C313.848145,232.915817 314.642944,220.953354 324.461670,216.397369 
	C333.289734,212.301041 342.196655,213.361298 351.584137,217.369980 
	C349.810059,220.911102 348.219116,224.086655 346.810852,226.897552 
	C342.810547,226.171310 339.277649,225.283310 335.698364,225.015564 
	C334.466339,224.923370 333.118500,226.378540 331.823578,227.126831 
	C332.817444,228.273773 333.597534,229.845963 334.851166,230.476074 
	C337.208496,231.660965 339.903290,232.152527 342.343475,233.198868 
	C348.237030,235.725922 352.465881,239.510529 352.279785,246.652710 
	C352.097870,253.633499 349.464111,257.251434 341.329712,260.233215 
	C340.114075,260.483124 339.556732,260.759888 338.999420,261.036682 
	C334.599518,261.103943 330.199615,261.171234 325.184509,260.923645 
	C323.949158,260.559692 323.328979,260.510620 322.708832,260.461517 
	C321.800232,260.155792 320.891632,259.850067 319.470520,259.139648 
	C317.626068,257.973785 316.294098,257.212585 314.962128,256.451385 
z"/>
<path fill="#080808" opacity="1.000000" stroke="none" 
	d="
M246.213135,261.681641 
	C230.764404,259.755249 220.588150,248.227478 222.439087,235.227936 
	C224.997803,217.257553 246.006119,207.938324 262.235046,218.133972 
	C260.683533,221.420273 259.097595,224.779495 257.403473,228.367828 
	C250.821930,226.056580 244.591827,225.352280 240.470505,232.091476 
	C237.901550,236.292236 238.167725,240.786621 241.277054,244.699310 
	C245.534912,250.057281 251.019196,249.529968 257.230225,247.105728 
	C258.890656,250.476044 260.537903,253.819611 262.390900,257.580811 
	C257.460815,260.869171 252.149124,261.609375 246.213135,261.681641 
z"/>
<path fill="#000000" opacity="1.000000" stroke="none" 
	d="
M171.219528,130.219116 
	C171.095734,131.841965 171.034424,133.021729 171.004547,134.643906 
	C171.035980,148.684708 171.035980,162.283081 171.035980,176.107849 
	C166.070480,176.107849 161.296387,176.107849 156.190399,176.107849 
	C156.190399,151.173386 156.190399,126.144524 156.190399,100.897400 
	C161.112854,100.897400 165.861176,100.897400 171.282028,100.897400 
	C171.282028,110.580811 171.282028,120.178429 171.219528,130.219116 
z"/>
<path fill="#020202" opacity="1.000000" stroke="none" 
	d="
M133.570221,159.995758 
	C133.570251,150.228180 133.570251,140.959595 133.570251,131.450592 
	C138.813202,131.450592 143.560043,131.450592 148.685638,131.450592 
	C148.685638,146.256546 148.685638,161.082367 148.685638,176.104904 
	C143.766571,176.104904 138.873337,176.104904 133.570190,176.104904 
	C133.570190,170.747833 133.570190,165.621277 133.570221,159.995758 
z"/>
<path fill="#0C0C0C" opacity="1.000000" stroke="none" 
	d="
M136.180145,105.087540 
	C141.774963,102.509911 145.606964,103.020393 148.553879,106.664146 
	C151.368744,110.144600 151.659027,113.900917 149.137115,117.675171 
	C146.157791,122.133980 140.230865,123.104370 136.035721,119.911095 
	C131.194824,116.226265 131.134949,110.595894 136.180145,105.087540 
z"/>
<path fill="#060606" opacity="1.000000" stroke="none" 
	d="
M38.594551,103.948792 
	C32.099148,104.412613 25.238405,104.709198 17.941525,105.007591 
	C18.702015,104.583176 19.891773,103.813316 21.096437,103.789238 
	C26.805132,103.675156 32.517895,103.764610 38.594551,103.948792 
z"/>
<path fill="#7E7E7E" opacity="1.000000" stroke="none" 
	d="
M315.000610,256.865784 
	C316.294098,257.212585 317.626068,257.973785 319.139709,258.997620 
	C318.382172,259.742249 317.442993,260.224243 316.259308,260.512146 
	C315.689545,259.305420 315.364288,258.292816 315.000610,256.865784 
z"/>
<path fill="#7E7E7E" opacity="1.000000" stroke="none" 
	d="
M322.786804,260.692871 
	C323.328979,260.510620 323.949158,260.559692 324.787231,260.852783 
	C324.291656,261.039246 323.578217,260.981750 322.786804,260.692871 
z"/>
<path fill="#7E7E7E" opacity="1.000000" stroke="none" 
	d="
M339.161682,261.205231 
	C339.556732,260.759888 340.114075,260.483124 340.977600,260.319641 
	C340.630524,260.746552 339.977234,261.060150 339.161682,261.205231 
z"/>
<path fill="#7E7E7E" opacity="1.000000" stroke="none" 
	d="
M280.266052,243.853790 
	C280.308228,243.683792 280.634674,243.386566 281.066956,243.394562 
	C280.965271,243.708710 280.757812,243.717621 280.266052,243.853790 
z"/>
<path fill="#FAFAFA" opacity="1.000000" stroke="none" 
	d="
M44.766037,159.985657 
	C41.185490,160.746078 37.960030,161.358292 34.255489,162.061432 
	C34.255489,147.339981 34.255489,133.279083 34.255489,119.178429 
	C42.849747,117.163559 51.841721,122.239548 55.448437,131.268539 
	C59.862728,142.319199 55.663258,153.936386 44.766037,159.985657 
z"/>
<path fill="#F6F6F6" opacity="1.000000" stroke="none" 
	d="
M95.986526,144.763489 
	C104.362679,141.542084 111.236893,145.010345 112.005951,152.473419 
	C112.531013,157.568665 110.015648,162.017792 105.663223,163.692322 
	C101.394119,165.334763 96.128746,164.078415 93.403946,160.767181 
	C90.375351,157.086761 90.240303,151.345825 93.182838,147.377213 
	C93.859535,146.464539 94.827789,145.768036 95.986526,144.763489 
z"/>
<path fill="#060606" opacity="1.000000" stroke="none" 
	d="
M75.054420,148.035294 
	C74.723984,148.822586 74.393555,149.609879 74.063126,150.397171 
	C73.734306,150.254120 73.405479,150.111069 73.076660,149.968002 
	C73.493263,149.332260 73.909859,148.696533 74.660645,148.025665 
	C74.994835,147.990555 75.054420,148.035294 75.054420,148.035294 
z"/>
<path fill="#060606" opacity="1.000000" stroke="none" 
	d="
M74.967552,147.965179 
	C75.091057,147.521179 75.241844,147.102554 75.392624,146.683929 
	C75.409866,147.043320 75.427116,147.402710 75.249390,147.898697 
	C75.054420,148.035294 74.994835,147.990555 74.967552,147.965179 
z"/>
<path fill="#F7F7F7" opacity="1.000000" stroke="none" 
	d="
M132.080734,218.771606 
	C132.040344,212.695663 132.040344,207.099670 132.040344,200.635513 
	C136.016418,201.094360 139.613800,201.169052 143.032547,201.988770 
	C147.473373,203.053528 149.404907,206.322159 149.342728,210.874496 
	C149.282578,215.278244 147.177414,218.404327 142.978180,219.154617 
	C139.465530,219.782242 135.747955,219.262985 132.080734,218.771606 
z"/>
<path fill="#F6F6F6" opacity="1.000000" stroke="none" 
	d="
M184.327194,232.646698 
	C187.422409,227.923080 191.507324,226.321045 196.539505,227.626724 
	C200.570312,228.672592 203.110916,231.493149 203.864059,235.560699 
	C204.673325,239.931412 203.620544,243.912384 199.761093,246.510696 
	C195.838638,249.151428 191.561691,249.172974 187.595001,246.659012 
	C183.678421,244.176834 182.612579,240.248032 183.244598,235.817978 
	C183.382523,234.851273 183.835403,233.929504 184.327194,232.646698 
z"/>
</svg>